<?xml version="1.0" encoding="UTF-8"?>
<svg width="40px" height="40px" viewBox="0 0 40 40" version="1.1" xmlns="http://www.w3.org/2000/svg" xmlns:xlink="http://www.w3.org/1999/xlink">
    <!-- Generator: Sketch 64 (93537) - https://sketch.com -->
    <title>Icons/Assets/Commodity/XPT</title>
    <desc>Created with Sketch.</desc>
    <defs>
        <circle id="path-1" cx="20" cy="20" r="20"></circle>
    </defs>
    <g id="Icons/Assets/Commodity/XPT" stroke="none" stroke-width="1" fill="none" fill-rule="evenodd">
        <g id="Asset">
            <circle id="Mask" fill="#BCA79C" cx="20" cy="20" r="20"></circle>
            <path d="M28.2373565,14.1957217 C28.3504,14.3512 28.316313,14.5685913 28.160487,14.6816348 L14.7789217,24.4141565 L14.8961391,28.3894609 C14.9017043,28.5814609 14.7507478,28.7418087 14.5587478,28.7473739 L14.548313,28.7473739 C14.3608348,28.7473739 14.2064,28.5985043 14.2008348,28.4099826 L14.0857043,24.5094609 L10.0592696,23.2760696 C9.87561739,23.2197217 9.77231304,23.025287 9.82866087,22.8416348 C9.88466087,22.6579826 10.080487,22.5543304 10.2630957,22.6110261 L14.356313,23.8645913 C14.360487,23.8618087 14.3618783,23.857287 14.3660522,23.8541565 L27.7517913,14.1192 C27.9072696,14.0061565 28.1246609,14.0405913 28.2373565,14.1957217 M29.3744,27.161287 C29.3712696,27.3512 29.2157913,27.5032 29.0265739,27.5032 L29.0206609,27.5032 C28.6279652,27.4969391 28.2317913,27.4979826 27.8415304,27.5018087 C27.8370087,27.7755478 27.8307478,28.0534609 27.820313,28.337287 C27.8133565,28.5247652 27.6592696,28.6722435 27.4731826,28.6722435 C27.4686609,28.6722435 27.4641391,28.6722435 27.4599652,28.6718957 C27.2679652,28.6645913 27.1180522,28.5032 27.1253565,28.3115478 C27.1350957,28.0405913 27.1413565,27.7745043 27.1455304,27.5129391 C26.864487,27.5185043 26.5886609,27.525113 26.3288348,27.5317217 L26.3194435,27.5317217 C26.1312696,27.5317217 25.9768348,27.3821565 25.9716174,27.193287 C25.9667478,27.001287 26.1184,26.841287 26.3104,26.8360696 C26.5778783,26.829113 26.8630957,26.8225043 27.1535304,26.8169391 C27.1549217,26.525113 27.1549217,26.2465043 27.1538783,26.0040696 C27.1528348,25.8117217 27.3079652,25.6555478 27.4999652,25.6545043 L27.5017043,25.6545043 C27.6930087,25.6545043 27.848487,25.8089391 27.8495304,26.0005913 C27.8505739,26.241287 27.8505739,26.5174609 27.8491826,26.8065043 C28.2401391,26.8026783 28.6370087,26.801287 29.0321391,26.8075478 C29.2241391,26.8106783 29.3771826,26.9689391 29.3744,27.161287 M13.372313,7.23189565 C13.3754435,7.04163478 13.5305739,6.88963478 13.7197913,6.88963478 L13.7257043,6.88963478 C14.0137043,6.89450435 14.3010087,6.90737391 14.5886609,6.91885217 C14.5917913,6.62946087 14.5928348,6.34389565 14.5904,6.0632 C14.5886609,5.87085217 14.7427478,5.71398261 14.9347478,5.71189565 C15.1121391,5.70737391 15.2839652,5.86424348 15.2860522,6.0565913 C15.288487,6.34737391 15.2874435,6.64267826 15.2839652,6.94215652 C15.6540522,6.95746087 16.0241391,6.97346087 16.3945739,6.97833043 C16.5865739,6.98111304 16.740313,7.13902609 16.7375304,7.33102609 C16.7350957,7.52163478 16.5799652,7.67398261 16.3900522,7.67398261 L16.3851826,7.67398261 C16.0133565,7.66911304 15.6422261,7.65485217 15.2710957,7.63954783 C15.2641391,7.89589565 15.2561391,8.15537391 15.2450087,8.42354783 C15.2373565,8.61067826 15.0836174,8.75711304 14.8978783,8.75711304 C14.8930087,8.75711304 14.888487,8.75711304 14.8832696,8.75676522 C14.6916174,8.74911304 14.5420522,8.58702609 14.5500522,8.39502609 C14.5611826,8.12789565 14.5691826,7.86946087 14.5757913,7.61450435 C14.288487,7.60302609 14.0015304,7.59015652 13.7142261,7.58528696 C13.5222261,7.58215652 13.3688348,7.42389565 13.372313,7.23189565 M7.79353043,14.8858087 C7.80118261,14.6941565 7.9650087,14.5463304 8.15526957,14.5525913 C8.39457391,14.5626783 8.64953043,14.5724174 8.90935652,14.5818087 C8.91109565,14.4134609 8.91492174,14.245113 8.91666087,14.0767652 L8.91874783,13.8625043 C8.92083478,13.6715478 9.07631304,13.5181565 9.26657391,13.5181565 L9.2704,13.5181565 C9.4624,13.5202435 9.61648696,13.6778087 9.6144,13.8698087 L9.61231304,14.0840696 C9.61057391,14.257287 9.60674783,14.4301565 9.6050087,14.6033739 C9.9090087,14.6113739 10.2157913,14.6179826 10.5208348,14.6204174 C10.7128348,14.6221565 10.8676174,14.7786783 10.8662354,14.9710261 C10.864487,15.1619826 10.7090087,15.3160696 10.5184,15.3160696 L10.5156174,15.3160696 C10.208487,15.3139826 9.89996522,15.3070261 9.59457391,15.2990261 C9.59074783,15.5752 9.5890087,15.8513739 9.58274783,16.1275478 C9.57857391,16.317113 9.4237913,16.4677217 9.23526957,16.4677217 C9.23248696,16.4677217 9.23005217,16.4677217 9.22761739,16.4677217 C9.03526957,16.4635478 8.88292174,16.3042435 8.88744348,16.1122435 C8.89370435,15.8339826 8.89544348,15.5557217 8.89926957,15.2774609 C8.63283478,15.2680696 8.37161739,15.2576348 8.12674783,15.2475478 C7.93474783,15.2398957 7.78553043,15.0778087 7.79353043,14.8858087 M32.3702261,16.8725913 L15.6366609,29.5828522 C15.0759652,30.0082435 14.3455304,30.1226783 13.6808348,29.8868522 L8.20048696,27.9428522 C7.61126957,27.7334609 7.29822609,27.1032 7.48813913,26.5077217 L8.67283478,22.7946783 C8.79631304,22.4078957 9.05022609,22.0705043 9.38796522,21.845113 C10.5698783,21.0552 13.1917913,19.213113 15.9674435,17.2628522 C18.7984,15.2739826 21.7260522,13.217287 23.0630957,12.3240696 C23.5079652,12.0266783 24.0144,11.8924174 24.4902261,11.9473739 C25.8704,12.1056348 28.4467478,12.5087652 29.5194435,12.6896348 C29.9298783,12.7588522 30.2317913,12.8945043 30.4422261,13.1038957 L32.4867478,15.1400696 C32.7225739,15.3748522 32.8450087,15.7004174 32.8227478,16.0325913 C32.8001391,16.365113 32.6356174,16.6712 32.3702261,16.8725913 M32.9771826,14.6472 L30.9330087,12.6106783 C30.6171826,12.2965913 30.192487,12.0976348 29.6349217,12.0037217 C28.5559652,11.8218087 25.9625739,11.4158957 24.5695304,11.2562435 C23.9302261,11.1838957 23.2589217,11.3567652 22.6766609,11.7456348 C21.3326609,12.6437217 18.4018783,14.7025043 15.5677913,16.6938087 C12.7952696,18.6416348 10.1768348,20.481287 9.00153043,21.2666783 C8.53335652,21.5793739 8.18135652,22.0472 8.01022609,22.5835478 L6.82553043,26.2965913 C6.52048696,27.2517217 7.0224,28.2628522 7.9677913,28.5985043 L13.448487,30.5425043 C13.752487,30.6503304 14.0672696,30.7028522 14.3799652,30.7028522 C14.9771826,30.7028522 15.5664,30.5098087 16.0575304,30.1365913 L32.7907478,17.4266783 C33.2161391,17.1035478 33.4808348,16.6127652 33.5170087,16.0792 C33.552487,15.5456348 33.3559652,15.0238957 32.9771826,14.6472" id="Fill-4" fill="#F5F9FC"></path>
            <mask id="mask-2" fill="white">
                <use xlink:href="#path-1"></use>
            </mask>
            <circle stroke-opacity="0.02" stroke="#000000" cx="20" cy="20" r="19.5"></circle>
        </g>
    </g>
</svg>